<?xml version="1.0" encoding="UTF-8"?> <svg xmlns="http://www.w3.org/2000/svg" xmlns:xlink="http://www.w3.org/1999/xlink" version="1.1" id="Layer_1" x="0px" y="0px" viewBox="0 0 212 58" style="enable-background:new 0 0 212 58;" xml:space="preserve"> <style type="text/css"> .st0{fill-rule:evenodd;clip-rule:evenodd;fill:#FFFFFF;} .st1{fill:#FFFFFF;} .st2{opacity:0.8;} .st3{fill-rule:evenodd;clip-rule:evenodd;fill:#5D9FBB;} .st4{fill:#231F20;} .st5{fill-rule:evenodd;clip-rule:evenodd;fill:#005977;} </style> <g id="Layer_2_00000145053143492945551790000016696000880940076690_"> <g id="Layer_1-2"> <path class="st0" d="M0.1,51.7v-6.9c10.5,0,19-8.1,19-18.1S10.5,8.5,0.1,8.5V1.5c14.5,0,26.3,11.2,26.3,25.1S14.6,51.7,0.1,51.7z"></path> <path class="st1" d="M0.1,51.7L0.1,51.7l-0.1-7h0.1c10.4,0,19-8.1,19-18.1S10.5,8.5,0,8.5h0v-7h0.1c14.5,0,26.3,11.3,26.3,25.1 S14.6,51.7,0.1,51.7z M0.1,44.8v6.8c14.4,0,26.2-11.2,26.2-25s-11.7-25-26.1-25v6.8c10.5,0,19,8.2,19,18.2S10.6,44.8,0.1,44.8 L0.1,44.8z"></path> <path class="st0" d="M0.1,35.3c4.9,0.1,8.9-3.8,9.1-8.6C9,21.7,4.9,17.9,0.1,18V35.3z"></path> <path class="st1" d="M0.1,35.3L0.1,35.3L0,17.9h0.1c4.9-0.1,9,3.8,9.1,8.7C9,31.5,5,35.4,0.1,35.3z M0.1,18v17.2 c4.8,0.1,8.8-3.8,8.9-8.6C9,21.8,5,17.9,0.1,18z"></path> <g class="st2"> <path class="st0" d="M45.8,1.5v6.9c-10.5,0-19,8.1-19,18.2s8.5,18.2,19,18.2v6.9c-14.5,0-26.3-11.2-26.3-25.1S31.3,1.5,45.8,1.5z "></path> <path class="st1" d="M45.9,51.7L45.9,51.7c-14.6,0-26.4-11.3-26.4-25.1S31.3,1.5,45.8,1.5h0v7h0c-10.5,0-19,8.1-19,18.1 s8.5,18.1,19,18.1h0L45.9,51.7z M45.8,1.6c-14.4,0-26.2,11.2-26.2,25s11.7,25,26.2,25v-6.8c-10.5,0-19-8.2-19-18.2 s8.5-18.2,19-18.2V1.6z"></path> </g> <g class="st2"> <path class="st0" d="M45.8,18c-4.9-0.1-8.9,3.8-9,8.6c0.1,4.9,4.2,8.8,9,8.7V18z"></path> <path class="st1" d="M45.9,35.3L45.9,35.3c-5,0.1-9-3.8-9.2-8.7c0.1-4.9,4.2-8.8,9.1-8.7h0V35.3z M45.8,18 c-4.8-0.1-8.8,3.8-9,8.6c0.1,4.8,4.1,8.7,9,8.6V18z"></path> </g> <path class="st3" d="M45.8,1.5v6.9c-10.5,0-19,8.1-19,18.2s8.5,18.2,19,18.2v6.9c-14.5,0-26.3-11.2-26.3-25.1S31.3,1.5,45.8,1.5z"></path> <path class="st3" d="M45.8,18c-4.9-0.1-8.9,3.8-9,8.6c0.1,4.9,4.2,8.8,9,8.7V18z"></path> <path class="st4" d="M61.6,33.2v-31h11c11,0,16.5,5,16.5,15.1c0,4.8-1.5,8.7-4.5,11.5s-7,4.3-12,4.3L61.6,33.2z M68.6,8v19.6H72 c2.6,0.1,5.2-0.8,7.1-2.7c1.8-2,2.7-4.7,2.6-7.4c0.2-2.6-0.8-5.1-2.6-7C77.2,8.7,74.6,7.8,72,8H68.6z"></path> <path class="st4" d="M112,33.2h-6.8v-3.4h-0.1c-1.4,2.4-4,3.9-6.8,3.9c-5.1,0-7.7-3.1-7.7-9.3V11.1h6.8v12.7 c0,3.1,1.2,4.7,3.7,4.7c1.1,0,2.2-0.4,2.9-1.3c0.8-1,1.2-2.2,1.1-3.5V11.1h6.8V33.2z"></path> <path class="st4" d="M129.7,5.7c-0.8-0.3-1.7-0.5-2.5-0.5c-2.2,0-3.3,1.2-3.3,3.6v2.3h5.1v5h-5.1v17.1h-6.8V16.2h-3.7v-5h3.7V8.4 c-0.1-2.3,0.8-4.5,2.5-6.1c1.8-1.6,4.2-2.4,6.7-2.3c1.2,0,2.3,0.1,3.5,0.4V5.7z"></path> <path class="st4" d="M144.2,5.7c-0.8-0.3-1.7-0.5-2.5-0.5c-2.2,0-3.3,1.2-3.3,3.6v2.3h5.1v5h-5.1v17.1h-6.8V16.2h-3.7v-5h3.7V8.4 c-0.1-2.3,0.8-4.5,2.4-6.1c1.9-1.6,4.3-2.5,6.7-2.3c1.2,0,2.3,0.1,3.4,0.4V5.7z"></path> <path class="st4" d="M164.1,24.1h-14.4c0.2,3.2,2.2,4.8,6.1,4.8c2.3,0,4.5-0.6,6.4-1.7v4.9c-2.5,1.2-5.2,1.8-8,1.6 c-3.6,0-6.3-1-8.3-3s-3-4.8-3-8.3c-0.2-3.2,1-6.4,3.2-8.7c2.1-2.1,4.9-3.3,7.9-3.2c3.2,0,5.7,1,7.5,2.9c1.8,2.2,2.8,5,2.6,7.8 L164.1,24.1z M157.8,19.9c0-3.2-1.3-4.8-3.8-4.8c-1.1,0-2.1,0.5-2.8,1.4c-0.8,1-1.3,2.1-1.5,3.4H157.8z"></path> <path class="st4" d="M180.1,17.3c-0.9-0.5-1.9-0.7-2.9-0.7c-1.4-0.1-2.7,0.5-3.5,1.6c-0.9,1.3-1.3,2.9-1.2,4.4v10.6h-6.8V11.1h6.8 v4.1h0.1c1.1-3,3-4.5,5.8-4.5c0.6,0,1.1,0.1,1.7,0.3V17.3z"></path> <path class="st4" d="M184.4,7.6c-1,0-2.1-0.3-2.8-1c-0.7-0.6-1.1-1.6-1.1-2.5c0-1,0.4-1.9,1.1-2.5c1.7-1.3,4-1.3,5.7,0 c0.7,0.6,1.1,1.5,1.1,2.5c0,1-0.4,1.9-1.1,2.6C186.4,7.4,185.4,7.7,184.4,7.6z M187.7,33.2h-6.8V11.1h6.8V33.2z"></path> <path class="st4" d="M212.3,33.2h-6.8V21c0-3.4-1.2-5.1-3.7-5.1c-1.1,0-2.2,0.5-2.9,1.3c-0.8,1-1.2,2.2-1.1,3.5v12.6H191V11.1h6.8 v3.5h0.1c1.4-2.6,4.2-4.1,7.1-4c4.9,0,7.3,3,7.3,9.1L212.3,33.2z"></path> <path class="st4" d="M70.6,51.7c-1,0.6-2.2,0.9-3.3,0.8c-1.6,0.1-3.1-0.5-4.1-1.7c-1.1-1.2-1.6-2.8-1.6-4.4 c-0.1-1.7,0.6-3.4,1.8-4.7c1.2-1.2,2.8-1.9,4.5-1.8c1,0,1.9,0.2,2.8,0.6v1.2c-0.9-0.5-1.9-0.8-2.9-0.8c-1.4,0-2.7,0.5-3.6,1.5 c-0.9,1.1-1.4,2.5-1.4,3.9c-0.1,1.4,0.4,2.7,1.2,3.8c0.8,0.9,2,1.5,3.3,1.4c1.2,0,2.3-0.3,3.3-1L70.6,51.7z"></path> <path class="st4" d="M81.7,52.5c-1.6,0.1-3.2-0.6-4.3-1.7c-1.1-1.2-1.7-2.8-1.6-4.5c-0.1-1.7,0.5-3.4,1.7-4.7 c1.2-1.1,2.8-1.8,4.4-1.7c1.6-0.1,3.1,0.5,4.2,1.7c1.1,1.3,1.7,3,1.6,4.6c0.1,1.7-0.5,3.3-1.6,4.5C84.9,51.9,83.3,52.6,81.7,52.5z M81.8,40.9c-1.3-0.1-2.6,0.5-3.5,1.4c-0.9,1.1-1.4,2.5-1.3,4c-0.1,1.4,0.4,2.7,1.3,3.8c0.9,1,2.2,1.5,3.5,1.4 c1.3,0.1,2.6-0.4,3.5-1.4c0.9-1.1,1.3-2.5,1.2-3.9c0.1-1.4-0.3-2.8-1.2-3.9C84.3,41.3,83.1,40.8,81.8,40.9z"></path> <path class="st4" d="M102,52.2V50l0,0c-0.7,1.5-2.3,2.5-4,2.5c-3,0-4.4-1.8-4.4-5.3v-6.9h1.1v6.7c-0.1,1.2,0.2,2.5,0.8,3.5 c0.6,0.8,1.6,1.2,2.6,1.1c1.1,0,2.1-0.4,2.8-1.2c0.7-0.9,1.1-2.1,1-3.3v-6.8h1.1v12L102,52.2z"></path> <path class="st4" d="M118.6,52.2v-7c0-2.9-1.1-4.3-3.2-4.3c-1.1,0-2.2,0.4-3,1.3c-0.8,0.9-1.2,2-1.2,3.1v6.9h-1.1v-12h1.1v2.2l0,0 c0.8-1.6,2.5-2.6,4.3-2.5c1.2-0.1,2.3,0.4,3.1,1.3c0.8,1.1,1.2,2.4,1.1,3.7v7.3L118.6,52.2z"></path> <path class="st4" d="M131.5,52c-0.5,0.2-1.1,0.4-1.6,0.4c-1.8,0-2.8-1.1-2.8-3.2v-8h-2.2v-1h2.2v-3.1l0.6-0.2l0.6-0.2v3.5h3.3v1 h-3.3v7.9c-0.1,0.6,0.1,1.3,0.4,1.8c0.3,0.4,0.9,0.6,1.4,0.6c0.5,0,1-0.2,1.5-0.4L131.5,52z"></path> <path class="st4" d="M140,54.7c-0.3,0.9-0.8,1.7-1.5,2.3c-0.6,0.5-1.4,0.8-2.1,0.8c-0.3,0-0.7,0-1-0.2v-1c0.3,0.1,0.7,0.2,1,0.2 c1,0,1.8-0.7,2.4-2l1.2-2.7l-4.7-11.9h1.3l3.8,9.8c0.1,0.2,0.1,0.4,0.2,0.5c0,0.1,0.1,0.3,0.1,0.4l0,0l0.3-0.8l4-9.8h1.2L140,54.7 z"></path> <path class="st5" d="M0.1,51.7v-6.9c10.5,0,19-8.1,19-18.1S10.5,8.5,0.1,8.5V1.5c14.5,0,26.3,11.2,26.3,25.1S14.6,51.7,0.1,51.7z"></path> <path class="st5" d="M0.1,35.3c4.9,0.1,8.9-3.8,9.1-8.6C9,21.7,4.9,17.9,0.1,18V35.3z"></path> </g> </g> </svg> 